<?xml version="1.0" standalone="no"?>
<!DOCTYPE svg PUBLIC "-//W3C//DTD SVG 20010904//EN"
 "http://www.w3.org/TR/2001/REC-SVG-20010904/DTD/svg10.dtd">
<svg version="1.0" xmlns="http://www.w3.org/2000/svg"
 width="512.000000pt" height="512.000000pt" viewBox="0 0 512.000000 512.000000"
 preserveAspectRatio="xMidYMid meet">
<metadata>
Created by potrace 1.14, written by Peter Selinger 2001-2017
</metadata>
<g transform="translate(0.000000,512.000000) scale(0.100000,-0.100000)"
fill="#000000" stroke="none">
<path d="M1224 4666 c-17 -8 -42 -31 -55 -52 l-24 -39 -5 -500 -5 -499 -22
-12 c-13 -6 -31 -18 -41 -27 -10 -10 -23 -17 -28 -17 -5 0 -21 -10 -35 -22
-14 -13 -32 -27 -41 -33 -32 -21 -75 -51 -128 -90 -30 -22 -62 -44 -71 -50
-86 -54 -119 -78 -119 -86 0 -5 -4 -9 -10 -9 -17 0 -139 -91 -158 -118 -42
-61 -42 -49 -42 -1257 0 -1119 1 -1164 19 -1220 11 -32 27 -62 35 -67 9 -5 16
-16 16 -24 0 -8 8 -17 17 -21 10 -3 26 -14 35 -24 10 -9 42 -24 72 -33 48 -14
248 -16 1921 -16 1673 0 1873 2 1921 16 30 9 62 24 72 33 9 10 25 21 35 24 9
4 17 13 17 21 0 8 7 19 16 24 8 5 24 35 35 67 18 56 19 101 19 1220 0 1208 0
1196 -42 1257 -19 27 -141 118 -158 118 -6 0 -10 4 -10 9 0 8 -33 32 -119 86
-9 6 -41 28 -71 50 -53 39 -96 69 -128 90 -9 6 -27 20 -41 33 -14 12 -30 22
-35 22 -5 0 -18 7 -28 17 -10 9 -28 21 -41 27 l-22 12 -5 499 -5 500 -24 39
c-14 21 -39 44 -57 52 -49 20 -2613 20 -2660 0z m2603 -1131 l3 -1000 -63 -50
c-34 -27 -68 -54 -75 -60 -8 -5 -24 -20 -37 -32 -12 -13 -26 -23 -30 -23 -5 0
-15 -7 -24 -15 -9 -8 -50 -42 -91 -74 -41 -33 -84 -69 -96 -80 -12 -12 -25
-21 -30 -21 -5 0 -17 -8 -26 -17 -8 -10 -30 -29 -49 -43 -45 -34 -110 -87
-135 -110 -12 -11 -26 -20 -31 -20 -4 0 -14 -9 -21 -20 -7 -11 -16 -20 -22
-20 -5 0 -22 -12 -37 -26 -50 -47 -53 -46 -133 17 -41 32 -84 68 -95 79 -12
11 -26 20 -32 20 -6 0 -13 6 -16 13 -3 8 -37 30 -75 50 -65 34 -76 37 -157 37
-73 0 -94 -4 -141 -27 -30 -15 -66 -37 -80 -50 -14 -13 -28 -23 -32 -23 -3 0
-15 -9 -27 -20 -11 -11 -53 -47 -94 -79 -80 -64 -83 -65 -134 -17 -15 14 -32
26 -37 26 -6 0 -15 9 -22 20 -7 11 -17 20 -21 20 -5 0 -19 9 -31 20 -25 23
-90 76 -135 110 -19 14 -41 33 -49 43 -9 9 -21 17 -26 17 -5 0 -18 9 -30 21
-12 11 -55 47 -96 80 -41 32 -82 66 -91 74 -9 8 -19 15 -24 15 -4 0 -18 10
-30 22 -13 13 -29 28 -37 33 -7 6 -41 33 -75 60 l-63 50 0 1003 0 1002 1273
-2 1272 -3 2 -1000z m-2946 -862 c13 -16 12 -17 -3 -4 -10 7 -18 15 -18 17 0
8 8 3 21 -13z m40 -30 c13 -16 12 -17 -3 -4 -10 7 -18 15 -18 17 0 8 8 3 21
-13z m3039 -187 c0 -2 -8 -10 -17 -17 -16 -13 -17 -12 -4 4 13 16 21 21 21 13z
m-3093 -909 c-1 -150 -2 -24 -2 278 0 303 1 425 2 272 2 -153 2 -401 0 -550z
m3380 0 c-1 -150 -2 -24 -2 278 0 303 1 425 2 272 2 -153 2 -401 0 -550z
m-2716 606 c13 -16 12 -17 -3 -4 -10 7 -18 15 -18 17 0 8 8 3 21 -13z m1046
-160 c-4 -3 -1 -13 5 -22 11 -14 10 -14 -7 0 -11 9 -27 19 -35 22 -8 3 -2 6
14 6 16 1 26 -2 23 -6z m67 -72 c-2 -3 -12 3 -22 13 -16 17 -16 18 5 5 12 -7
20 -15 17 -18z m181 -141 c10 -11 16 -20 13 -20 -3 0 -13 9 -23 20 -10 11 -16
20 -13 20 3 0 13 -9 23 -20z m46 -37 c13 -16 12 -17 -3 -4 -10 7 -18 15 -18
17 0 8 8 3 21 -13z m340 -20 c13 -16 12 -17 -3 -4 -17 13 -22 21 -14 21 2 0
10 -8 17 -17z m40 -30 c13 -16 12 -17 -3 -4 -17 13 -22 21 -14 21 2 0 10 -8
17 -17z m-180 -110 c13 -16 12 -17 -3 -4 -17 13 -22 21 -14 21 2 0 10 -8 17
-17z m49 -38 c13 -14 21 -25 18 -25 -2 0 -15 11 -28 25 -13 14 -21 25 -18 25
2 0 15 -11 28 -25z m60 -50 c13 -14 21 -25 18 -25 -2 0 -15 11 -28 25 -13 14
-21 25 -18 25 2 0 15 -11 28 -25z m-1550 11 c0 -2 -8 -10 -17 -17 -16 -13 -17
-12 -4 4 13 16 21 21 21 13z m1681 -113 c13 -16 12 -17 -3 -4 -17 13 -22 21
-14 21 2 0 10 -8 17 -17z m-1611 -17 c0 -2 -8 -10 -17 -17 -16 -13 -17 -12 -4
4 13 16 21 21 21 13z m1651 -13 c13 -16 12 -17 -3 -4 -17 13 -22 21 -14 21 2
0 10 -8 17 -17z m69 -58 c13 -14 21 -25 18 -25 -2 0 -15 11 -28 25 -13 14 -21
25 -18 25 2 0 15 -11 28 -25z m-2150 -89 c0 -2 -8 -10 -17 -17 -16 -13 -17
-12 -4 4 13 16 21 21 21 13z m2390 -101 c13 -14 21 -25 18 -25 -2 0 -15 11
-28 25 -13 14 -21 25 -18 25 2 0 15 -11 28 -25z m61 -52 c13 -16 12 -17 -3 -4
-17 13 -22 21 -14 21 2 0 10 -8 17 -17z m-2511 -77 c0 -2 -8 -10 -17 -17 -16
-13 -17 -12 -4 4 13 16 21 21 21 13z m2751 -113 c13 -16 12 -17 -3 -4 -17 13
-22 21 -14 21 2 0 10 -8 17 -17z m-1043 0 c-196 -2 -520 -2 -720 0 -200 1 -39
2 357 2 396 0 559 -1 363 -2z m-2178 -77 c0 -2 -8 -10 -17 -17 -16 -13 -17
-12 -4 4 13 16 21 21 21 13z m3420 -82 c0 -2 -9 0 -20 6 -11 6 -20 13 -20 16
0 2 9 0 20 -6 11 -6 20 -13 20 -16z m51 -41 c13 -16 12 -17 -3 -4 -17 13 -22
21 -14 21 2 0 10 -8 17 -17z m40 -30 c13 -16 12 -17 -3 -4 -17 13 -22 21 -14
21 2 0 10 -8 17 -17z"/>
<path d="M2602 4322 c-12 -2 -30 -14 -38 -28 -15 -22 -14 -38 9 -207 14 -100
31 -229 37 -287 13 -120 31 -167 67 -176 42 -11 67 10 110 92 22 43 45 80 50
81 5 2 25 -27 43 -64 50 -103 76 -125 125 -107 28 11 42 55 58 179 66 503 62
460 44 489 -14 20 -26 26 -56 26 -24 0 -44 -7 -53 -17 -10 -12 -24 -80 -39
-190 l-24 -171 -28 49 c-27 45 -31 49 -67 49 -34 0 -43 -5 -65 -37 -14 -21
-25 -44 -25 -52 0 -8 -2 -12 -5 -9 -9 8 -45 247 -45 293 0 67 -34 97 -98 87z"/>
<path d="M1444 4299 c-18 -20 -19 -40 -19 -324 l0 -303 24 -26 c29 -31 60 -33
92 -7 23 18 24 27 29 163 l5 143 69 -140 c38 -77 78 -150 89 -162 25 -28 57
-29 88 -4 l24 19 3 304 c3 344 1 351 -62 356 -25 2 -44 -2 -57 -14 -17 -15
-19 -32 -19 -163 0 -132 -1 -143 -14 -119 -55 104 -78 151 -87 168 -19 42 -53
106 -62 118 -16 20 -81 15 -103 -9z"/>
<path d="M2006 4298 c-14 -19 -16 -68 -16 -328 l0 -307 23 -21 c22 -21 33 -22
184 -22 148 0 162 2 187 21 22 17 26 28 24 57 -4 52 -30 62 -165 62 l-113 0 0
70 0 70 44 0 c58 0 96 29 96 75 0 49 -22 65 -86 65 l-54 0 0 70 0 70 114 0
c99 0 117 3 140 21 28 22 35 64 16 100 -10 18 -23 19 -195 19 -179 0 -184 -1
-199 -22z"/>
<path d="M3362 4297 c-55 -41 -89 -92 -95 -144 -14 -111 35 -197 130 -233 30
-11 67 -20 83 -20 58 0 82 -82 34 -119 -37 -29 -59 -26 -100 14 -42 42 -80 46
-112 12 -30 -32 -28 -61 9 -107 42 -52 117 -84 180 -77 107 13 192 107 192
211 0 109 -81 198 -191 208 -30 3 -60 12 -69 20 -19 20 -21 81 -4 102 23 27
79 20 119 -15 30 -27 40 -30 71 -24 44 8 41 5 48 49 7 44 -11 74 -69 116 -37
27 -48 30 -118 30 -64 0 -81 -4 -108 -23z"/>
<path d="M1512 3469 c-21 -6 -42 -24 -60 -51 -27 -41 -27 -42 -27 -217 0 -197
7 -223 73 -261 32 -20 59 -20 1057 -20 998 0 1025 0 1057 20 66 38 73 64 73
261 0 174 0 176 -27 217 -20 29 -38 44 -65 51 -49 14 -2034 13 -2081 0z"/>
<path d="M1470 2769 c-13 -6 -28 -15 -32 -22 -15 -23 -8 -72 12 -90 19 -16 93
-17 1106 -17 1019 0 1086 1 1103 18 39 35 27 94 -20 111 -42 14 -2132 14
-2169 0z"/>
<path d="M1660 2470 c-35 -35 -23 -94 22 -109 43 -15 1703 -15 1746 0 47 16
55 96 12 119 -12 6 -344 10 -889 10 -858 0 -871 0 -891 -20z"/>
</g>
</svg>
